/* Created with The GIMP */
#define iconify_new_width 16
#define iconify_new_height 16
#define iconify_x_hot 1
#define iconify_y_hot 13
static unsigned char iconify_new_bits[] = {
   0xff, 0xdf, 0xff, 0xaf, 0xff, 0x77, 0xff, 0xbb, 0xff, 0xdd, 0xbf, 0xee,
   0x5f, 0xf7, 0xdf, 0xfb, 0xdf, 0xfd, 0xef, 0xfb, 0x6f, 0xfc, 0x8f, 0xff,
   0xf1, 0xff, 0xf5, 0xff, 0xf1, 0xff, 0xff, 0xff };
